<svg xmlns="http://www.w3.org/2000/svg" viewBox="0 0 160 160">
  <defs>
    <style>
      .cls-1 {
        fill: #d9e0e6;
      }

      .cls-2 {
        fill: none;
        stroke: #7f7f7f;
        stroke-miterlimit: 10;
      }
    </style>
  </defs>
  <title>Artboard 3</title>
  <g id="Layer_3" data-name="Layer 3">
    <rect class="cls-1" x="-313" y="-275.5" width="724" height="631"/>
  </g>
  <g id="Layer_2" data-name="Layer 2">
    <g>
      <path class="cls-2" d="M136.15,1.15h0a2.73,2.73,0,0,0-4.44,3.17,65.34,65.34,0,0,1,0,76,2.72,2.72,0,0,0,.62,3.8v0a2.74,2.74,0,0,0,3.81-.64A70.81,70.81,0,0,0,136.15,1.15Z"/>
      <path class="cls-2" d="M24.69.51h0a2.72,2.72,0,0,0-3.8.63,70.77,70.77,0,0,0,0,82.3,2.72,2.72,0,0,0,4.43-3.17,65.37,65.37,0,0,1,0-76A2.71,2.71,0,0,0,24.69.51Z"/>
      <path class="cls-2" d="M42,13.88a2.74,2.74,0,0,0-.49-3.83h0a2.73,2.73,0,0,0-3.82.48,51.62,51.62,0,0,0,0,63.52A2.73,2.73,0,0,0,42,70.7,46.15,46.15,0,0,1,42,13.88Z"/>
      <path class="cls-2" d="M115.7,10.05h0a2.72,2.72,0,0,0-.48,3.82,46.15,46.15,0,0,1,0,56.82A2.73,2.73,0,1,0,119.53,74a51.62,51.62,0,0,0,0-63.52A2.73,2.73,0,0,0,115.7,10.05Z"/>
      <path class="cls-2" d="M98.48,23.63a27.16,27.16,0,0,1,0,37.32,2.73,2.73,0,0,0,.12,3.86h0a2.73,2.73,0,0,0,3.86-.12h0a32.63,32.63,0,0,0,0-44.8,2.73,2.73,0,1,0-4,3.71Z"/>
      <path class="cls-2" d="M56.78,65.55a2.72,2.72,0,0,0,2-4.6,27.18,27.18,0,0,1,0-37.32,2.73,2.73,0,1,0-3.94-3.77l0,0a32.63,32.63,0,0,0,0,44.8A2.72,2.72,0,0,0,56.78,65.55Z"/>
      <path class="cls-2" d="M114,156.19,87.44,52.61A13.64,13.64,0,1,0,68.22,51a14,14,0,0,0,1.58,1.59L43.25,156.19a2.73,2.73,0,0,0,2,3.32h0a3.08,3.08,0,0,0,.68.08,2.73,2.73,0,0,0,2.64-2.05l.91-3.54a3.34,3.34,0,0,0,.44-.17l51-26.84,7.83,30.55a2.73,2.73,0,0,0,2.65,2.05,3.08,3.08,0,0,0,.68-.08,2.73,2.73,0,0,0,2-3.32ZM87.71,75.6l-14.84-13,1.88-7.32a12.23,12.23,0,0,0,7.75,0ZM78.62,34.11a8.18,8.18,0,1,1-8.18,8.18A8.19,8.19,0,0,1,78.62,34.11ZM71.35,68.54,87.78,82.92,63.51,99.09Zm-20.1,78.4L61,108.75l33.28,15.53Zm13.83-42.33L90.76,87.49l8.47,33.06Z"/>
    </g>
  </g>
</svg>
