<svg xmlns="http://www.w3.org/2000/svg" viewBox="0 0 160 160">
  <defs>
    <style>
      .cls-1 {
        fill: #d9e0e6;
      }

      .cls-2 {
        fill: none;
        stroke: #7f7f7f;
        stroke-miterlimit: 10;
      }
    </style>
  </defs>
  <title>Artboard 3 copy</title>
  <g id="Layer_3" data-name="Layer 3">
    <rect class="cls-1" x="-323" y="-29.5" width="724" height="631"/>
  </g>
  <g id="Layer_2" data-name="Layer 2">
    <g>
      <path class="cls-2" d="M99.42,89.69l14.49-19A5.7,5.7,0,0,0,112,62.21L82.75,46.88a19.2,19.2,0,0,0-9-2.57c-3.75,0-7.31,1.56-10.61,3.45L46,57.62,44.35,54.3a12.1,12.1,0,0,1-7.58-3.69l-7.61-8a5.66,5.66,0,0,0-.44,5.76l9.65,19.81a5.7,5.7,0,0,0,3.47,3,6,6,0,0,0,1.68.24,5.74,5.74,0,0,0,2.84-.75l10.15-5.82V81.31L43,119.71a2.46,2.46,0,0,0,2.3,3.27H56.49v27.94a7.68,7.68,0,1,0,15.36,0V123h3.71v27.94a7.68,7.68,0,0,0,15.36,0V123h11.21a2.45,2.45,0,0,0,2.31-3.27L94.65,91.93h.19A5.71,5.71,0,0,0,99.42,89.69ZM91.1,81.75,91,81.31V64.05l9.77,5.12Z"/>
      <path class="cls-2" d="M38.94,30.51,34.4,25.7A1.69,1.69,0,0,0,32,25.64l-1.25,1.17a8.72,8.72,0,0,0-.34,12.33l1.31,1.37,7.42,7.84a8.72,8.72,0,0,0,3.4,2.22,8.42,8.42,0,0,0,2.94.51,8.65,8.65,0,0,0,6-2.39l1.25-1.17a1.69,1.69,0,0,0,.06-2.39l-4.54-4.8a1.72,1.72,0,0,0-2.39-.07l-2.43,2.31-7-7.36,2.43-2.3A1.74,1.74,0,0,0,38.94,30.51Z"/>
      <path class="cls-2" d="M93.88,36.46a8.41,8.41,0,0,1-4.54-7.52c0-5.88,1.47-23.69-15.61-23.69s-15.6,17.81-15.6,23.69a8.41,8.41,0,0,1-4.54,7.52,1,1,0,0,0-.48,1.16c1,3,3.34,4,5.9,4a21.73,21.73,0,0,0,8.27-2.19c-2-1.2-3.09-3.57-3.6-5.95a11.53,11.53,0,0,0,20.1,0c-.5,2.4-1.55,4.75-3.59,5.95a21.73,21.73,0,0,0,8.27,2.19c2.54,0,5-.92,5.89-4A1,1,0,0,0,93.88,36.46Z"/>
      <path class="cls-2" d="M138.6,25.92H108.72l-8.38,4.28a3.86,3.86,0,0,1-4.17-.41c-.07-.05-.13-.12-.2-.18a3.88,3.88,0,0,1-.67-4.79l4.09-6.93V4.59A4.6,4.6,0,0,1,104,0h34.59a4.61,4.61,0,0,1,4.59,4.59V21.32A4.57,4.57,0,0,1,138.6,25.92Z"/>
    </g>
  </g>
</svg>
