<svg id="Layer_2" data-name="Layer 2" xmlns="http://www.w3.org/2000/svg" viewBox="0 0 1920 967">
  <defs>
    <style>
      .cls-1 {
        fill: #dae1e7;
      }

      .cls-12, .cls-13, .cls-14, .cls-2 {
        fill: none;
      }

      .cls-3 {
        fill: #50a2a8;
      }

      .cls-4 {
        fill: #d1e7e8;
      }

      .cls-5 {
        fill: #0a7d85;
      }

      .cls-6 {
        fill: #8cc2c6;
      }

      .cls-7 {
        fill: #007880;
      }

      .cls-8 {
        fill: #b25f76;
      }

      .cls-9 {
        fill: #ebd5db;
      }

      .cls-10 {
        fill: #931e3f;
      }

      .cls-11 {
        fill: #cd96a5;
      }

      .cls-12 {
        stroke: #7f7f7f;
      }

      .cls-12, .cls-13, .cls-14 {
        stroke-miterlimit: 10;
      }

      .cls-13 {
        stroke: #383838;
      }

      .cls-14 {
        stroke: #fff;
        stroke-linecap: round;
        stroke-width: 0.5px;
      }

      .cls-15 {
        fill: #1e1a1e;
      }
    </style>
  </defs>
  <title>Artboard 1</title>
  <rect class="cls-1" width="1920" height="967"/>
  <g>
    <g>
      <rect class="cls-2" x="1590.91" y="132.75" width="131.79" height="79.93" transform="translate(259.05 1078.88) rotate(-38.91)"/>
      <circle class="cls-3" cx="1704.4" cy="135.74" r="5.63"/>
      <circle class="cls-4" cx="1712.85" cy="154.6" r="5.76"/>
      <circle class="cls-4" cx="1660.85" cy="162.8" r="3.64"/>
      <circle class="cls-3" cx="1694.21" cy="178.17" r="12.23"/>
      <circle class="cls-5" cx="1682.17" cy="156.22" r="9.84"/>
      <circle class="cls-6" cx="1669.88" cy="188.83" r="9.9"/>
      <circle class="cls-5" cx="1648.11" cy="171.31" r="4.34"/>
      <circle class="cls-3" cx="1638.77" cy="206.41" r="7.43"/>
      <circle class="cls-4" cx="1601.15" cy="175.62" r="7.27"/>
      <circle class="cls-4" cx="1624.9" cy="195.14" r="4.15"/>
      <circle class="cls-5" cx="1606.76" cy="199.11" r="10.38"/>
      <circle class="cls-3" cx="1624.11" cy="170.74" r="10.63"/>
      <circle class="cls-6" cx="1643.08" cy="187.23" r="7.41"/>
    </g>
    <g>
      <rect class="cls-2" x="1500.69" y="160.99" width="116.56" height="70.7" transform="translate(340.85 1188.86) rotate(-46.35)"/>
      <circle class="cls-3" cx="1596.47" cy="158.45" r="4.98"/>
      <circle class="cls-4" cx="1606.04" cy="174.03" r="5.09"/>
      <circle class="cls-4" cx="1561.38" cy="187.18" r="3.22"/>
      <circle class="cls-3" cx="1592.4" cy="196.83" r="10.82"/>
      <circle class="cls-5" cx="1579.32" cy="178.96" r="8.7"/>
      <circle class="cls-6" cx="1572.29" cy="208.97" r="8.76"/>
      <circle class="cls-5" cx="1551.19" cy="196.09" r="3.84"/>
      <circle class="cls-3" cx="1547.01" cy="227.95" r="6.57"/>
      <circle class="cls-4" cx="1510.49" cy="205.26" r="6.43"/>
      <circle class="cls-4" cx="1533.56" cy="219.65" r="3.67"/>
      <circle class="cls-5" cx="1518.1" cy="225.21" r="9.18"/>
      <circle class="cls-3" cx="1530.07" cy="198.35" r="9.4"/>
      <circle class="cls-6" cx="1548.6" cy="210.64" r="6.55"/>
    </g>
    <g>
      <rect class="cls-2" x="1418.09" y="199.97" width="109.38" height="66.34" transform="translate(180.82 977.63) rotate(-38.95)"/>
      <circle class="cls-3" cx="1512.26" cy="202.42" r="4.67"/>
      <circle class="cls-4" cx="1519.28" cy="218.07" r="4.78"/>
      <circle class="cls-4" cx="1476.13" cy="224.9" r="3.02"/>
      <circle class="cls-3" cx="1503.83" cy="237.64" r="10.15"/>
      <circle class="cls-5" cx="1493.82" cy="219.43" r="8.16"/>
      <circle class="cls-6" cx="1483.65" cy="246.5" r="8.22"/>
      <circle class="cls-5" cx="1465.57" cy="231.97" r="3.6"/>
      <circle class="cls-3" cx="1457.83" cy="261.11" r="6.17"/>
      <circle class="cls-4" cx="1426.59" cy="235.58" r="6.03"/>
      <circle class="cls-4" cx="1446.32" cy="251.76" r="3.45"/>
      <circle class="cls-5" cx="1431.26" cy="255.06" r="8.62"/>
      <circle class="cls-3" cx="1445.65" cy="231.51" r="8.82"/>
      <circle class="cls-6" cx="1461.4" cy="245.19" r="6.15"/>
    </g>
    <g>
      <rect class="cls-2" x="1348.24" y="216.05" width="129.3" height="78.42" transform="translate(353.64 1224.5) rotate(-52.7)"/>
      <circle class="cls-3" cx="1449.6" cy="208.89" r="5.53"/>
      <circle class="cls-4" cx="1462.06" cy="224.89" r="5.65"/>
      <circle class="cls-4" cx="1414.43" cy="244.87" r="3.58"/>
      <circle class="cls-3" cx="1449.81" cy="251.71" r="12"/>
      <circle class="cls-5" cx="1433.2" cy="233.61" r="9.65"/>
      <circle class="cls-6" cx="1429.12" cy="267.55" r="9.71"/>
      <circle class="cls-5" cx="1404.28" cy="255.95" r="4.26"/>
      <circle class="cls-3" cx="1403.59" cy="291.58" r="7.29"/>
      <circle class="cls-4" cx="1360.54" cy="271.05" r="7.13"/>
      <circle class="cls-4" cx="1387.74" cy="284.08" r="4.07"/>
      <circle class="cls-5" cx="1371.38" cy="292.11" r="10.18"/>
      <circle class="cls-3" cx="1381.29" cy="261.03" r="10.43"/>
      <circle class="cls-6" cx="1403.21" cy="272.3" r="7.27"/>
    </g>
    <g>
      <rect class="cls-2" x="1254.58" y="249.31" width="108.58" height="65.86" transform="translate(110.68 879.87) rotate(-38.68)"/>
      <circle class="cls-3" cx="1348.21" cy="251.93" r="4.64"/>
      <circle class="cls-4" cx="1355.11" cy="267.5" r="4.74"/>
      <circle class="cls-4" cx="1312.24" cy="274.08" r="3"/>
      <circle class="cls-3" cx="1339.67" cy="286.86" r="10.08"/>
      <circle class="cls-5" cx="1329.83" cy="268.73" r="8.11"/>
      <circle class="cls-6" cx="1319.6" cy="295.56" r="8.16"/>
      <circle class="cls-5" cx="1301.72" cy="281.05" r="3.58"/>
      <circle class="cls-3" cx="1293.91" cy="309.94" r="6.12"/>
      <circle class="cls-4" cx="1263.01" cy="284.45" r="5.99"/>
      <circle class="cls-4" cx="1282.51" cy="300.6" r="3.42"/>
      <circle class="cls-5" cx="1267.55" cy="303.81" r="8.55"/>
      <circle class="cls-3" cx="1281.95" cy="280.5" r="8.76"/>
      <circle class="cls-6" cx="1297.52" cy="294.15" r="6.1"/>
    </g>
    <g>
      <rect class="cls-2" x="1170.15" y="269.48" width="133.18" height="80.77" transform="translate(250.16 1117.45) rotate(-53.37)"/>
      <circle class="cls-3" cx="1273.97" cy="261.67" r="5.69"/>
      <circle class="cls-4" cx="1287" cy="277.99" r="5.82"/>
      <circle class="cls-4" cx="1238.19" cy="299.14" r="3.68"/>
      <circle class="cls-3" cx="1274.71" cy="305.76" r="12.36"/>
      <circle class="cls-5" cx="1257.39" cy="287.32" r="9.94"/>
      <circle class="cls-6" cx="1253.6" cy="322.33" r="10"/>
      <circle class="cls-5" cx="1227.87" cy="310.68" r="4.39"/>
      <circle class="cls-3" cx="1227.59" cy="347.38" r="7.51"/>
      <circle class="cls-4" cx="1183" cy="326.75" r="7.34"/>
      <circle class="cls-4" cx="1211.17" cy="339.85" r="4.2"/>
      <circle class="cls-5" cx="1194.42" cy="348.31" r="10.49"/>
      <circle class="cls-3" cx="1204.25" cy="316.18" r="10.74"/>
      <circle class="cls-6" cx="1226.97" cy="327.53" r="7.49"/>
    </g>
    <g>
      <rect class="cls-2" x="1087.04" y="291.98" width="116.91" height="70.91" transform="translate(-5.21 636.06) rotate(-30.97)"/>
      <circle class="cls-3" cx="1191.85" cy="300.77" r="5"/>
      <circle class="cls-4" cx="1196.96" cy="318.38" r="5.11"/>
      <circle class="cls-4" cx="1150.26" cy="319.21" r="3.23"/>
      <circle class="cls-3" cx="1177.69" cy="336.81" r="10.85"/>
      <circle class="cls-5" cx="1169.81" cy="316.04" r="8.73"/>
      <circle class="cls-6" cx="1155.01" cy="343.19" r="8.78"/>
      <circle class="cls-5" cx="1138.03" cy="325.12" r="3.85"/>
      <circle class="cls-3" cx="1125.52" cy="354.82" r="6.59"/>
      <circle class="cls-4" cx="1096.24" cy="323.16" r="6.45"/>
      <circle class="cls-4" cx="1114.72" cy="343.21" r="3.68"/>
      <circle class="cls-5" cx="1098.29" cy="344.48" r="9.21"/>
      <circle class="cls-3" cx="1117.02" cy="321.69" r="9.43"/>
      <circle class="cls-6" cx="1131.66" cy="338.5" r="6.57"/>
    </g>
  </g>
  <path class="cls-7" d="M851.5,484.85A125.49,125.49,0,0,1,865.88,482c4.79-.7,9.58-1.21,14.37-1.58s9.58-.62,14.37-.72a117,117,0,0,1,14.38.36c9.58.84,19.17,2.94,28.75,3.32a163,163,0,0,0,28.75-1.46c4.79-.59,9.58-1.23,14.38-1.67s9.58-.67,14.37-.91c9.58-.5,19.17-1,28.75-.81s19.17.83,28.75,1.81a236.3,236.3,0,0,1,28.75,4.49.67.67,0,0,1,0,1.3,236.3,236.3,0,0,1-28.75,4.49q-14.37,1.47-28.75,1.81c-9.58.2-19.17-.31-28.75-.81-4.79-.24-9.58-.45-14.37-.91s-9.59-1.08-14.38-1.67a163,163,0,0,0-28.75-1.46c-9.58.38-19.17,2.48-28.75,3.32a117,117,0,0,1-14.38.36q-7.18-.15-14.37-.72c-4.79-.37-9.58-.88-14.37-1.58a125.49,125.49,0,0,1-14.38-2.83.67.67,0,0,1,0-1.3Z"/>
  <g>
    <g>
      <rect class="cls-2" x="292.09" y="84.68" width="84.2" height="138.83" transform="translate(156.73 476.49) rotate(-85.92)"/>
      <circle class="cls-8" cx="270.95" cy="148.41" r="5.93"/>
      <circle class="cls-9" cx="277.99" cy="127.81" r="6.07"/>
      <circle class="cls-9" cx="323.95" cy="158.84" r="3.84"/>
      <circle class="cls-8" cx="309.28" cy="123.03" r="12.88"/>
      <circle class="cls-10" cx="302.79" cy="148.6" r="10.36"/>
      <circle class="cls-11" cx="335.68" cy="132.29" r="10.43"/>
      <circle class="cls-10" cx="339.87" cy="161.43" r="4.57"/>
      <circle class="cls-8" cx="372.28" cy="141.09" r="7.83"/>
      <circle class="cls-9" cx="379.17" cy="191.83" r="7.65"/>
      <circle class="cls-9" cx="374.88" cy="159.74" r="4.37"/>
      <circle class="cls-10" cx="391.71" cy="169.71" r="10.93"/>
      <circle class="cls-8" cx="357.96" cy="179.1" r="11.2"/>
      <circle class="cls-11" cx="355.19" cy="152.77" r="7.8"/>
    </g>
    <g>
      <rect class="cls-2" x="383.04" y="135.94" width="71.84" height="118.45" transform="translate(169.48 584.24) rotate(-82.31)"/>
      <circle class="cls-8" cx="365.42" cy="186.93" r="5.06"/>
      <circle class="cls-9" cx="372.52" cy="169.76" r="5.17"/>
      <circle class="cls-9" cx="409.99" cy="198.65" r="3.28"/>
      <circle class="cls-8" cx="399.42" cy="167.37" r="10.99"/>
      <circle class="cls-10" cx="392.52" cy="188.79" r="8.84"/>
      <circle class="cls-11" cx="421.4" cy="176.68" r="8.9"/>
      <circle class="cls-10" cx="423.4" cy="201.72" r="3.9"/>
      <circle class="cls-8" cx="452.09" cy="186.14" r="6.68"/>
      <circle class="cls-9" cx="455.22" cy="229.72" r="6.53"/>
      <circle class="cls-9" cx="453.3" cy="202.16" r="3.73"/>
      <circle class="cls-10" cx="467.09" cy="211.55" r="9.33"/>
      <circle class="cls-8" cx="437.85" cy="217.73" r="9.55"/>
      <circle class="cls-11" cx="436.91" cy="195.17" r="6.66"/>
    </g>
    <g>
      <rect class="cls-2" x="446.48" y="188.03" width="104.72" height="63.51" transform="translate(-13.31 33.09) rotate(-3.75)"/>
      <circle class="cls-8" cx="451" cy="222.04" r="4.48"/>
      <circle class="cls-9" cx="454.14" cy="205.92" r="4.58"/>
      <circle class="cls-9" cx="491.67" cy="224.38" r="2.9"/>
      <circle class="cls-8" cx="477.03" cy="199.13" r="9.72"/>
      <circle class="cls-10" cx="474.81" cy="218.9" r="7.82"/>
      <circle class="cls-11" cx="497.71" cy="203.34" r="7.87"/>
      <circle class="cls-10" cx="503.84" cy="224.69" r="3.45"/>
      <circle class="cls-8" cx="525.97" cy="206.16" r="5.9"/>
      <circle class="cls-9" cx="536.32" cy="243.37" r="5.77"/>
      <circle class="cls-9" cx="529.82" cy="219.83" r="3.3"/>
      <circle class="cls-10" cx="543.42" cy="225.55" r="8.25"/>
      <circle class="cls-8" cx="519.17" cy="236.03" r="8.45"/>
      <circle class="cls-11" cx="514.39" cy="216.64" r="5.89"/>
    </g>
    <g>
      <rect class="cls-2" x="540.06" y="186" width="76.89" height="126.78" transform="translate(293.28 811.1) rotate(-86.4)"/>
      <circle class="cls-8" cx="520.71" cy="244.68" r="5.42"/>
      <circle class="cls-9" cx="526.98" cy="225.82" r="5.54"/>
      <circle class="cls-9" cx="569.19" cy="253.8" r="3.51"/>
      <circle class="cls-8" cx="555.52" cy="221.21" r="11.76"/>
      <circle class="cls-10" cx="549.79" cy="244.61" r="9.46"/>
      <circle class="cls-11" cx="579.7" cy="229.47" r="9.52"/>
      <circle class="cls-10" cx="583.75" cy="256.05" r="4.18"/>
      <circle class="cls-8" cx="613.19" cy="237.23" r="7.15"/>
      <circle class="cls-9" cx="619.86" cy="283.51" r="6.99"/>
      <circle class="cls-9" cx="615.7" cy="254.24" r="3.99"/>
      <circle class="cls-10" cx="631.15" cy="263.21" r="9.99"/>
      <circle class="cls-8" cx="600.4" cy="272.05" r="10.22"/>
      <circle class="cls-11" cx="597.67" cy="248.02" r="7.13"/>
    </g>
    <g>
      <rect class="cls-2" x="637.68" y="239.37" width="67.01" height="110.49" transform="matrix(0.12, -0.99, 0.99, 0.12, 299.2, 926.21)"/>
      <circle class="cls-8" cx="621.13" cy="287.7" r="4.72"/>
      <circle class="cls-9" cx="627.5" cy="271.59" r="4.83"/>
      <circle class="cls-9" cx="662.87" cy="297.99" r="3.06"/>
      <circle class="cls-8" cx="652.56" cy="268.97" r="10.25"/>
      <circle class="cls-10" cx="646.44" cy="289.05" r="8.25"/>
      <circle class="cls-11" cx="673.2" cy="277.33" r="8.3"/>
      <circle class="cls-10" cx="675.43" cy="300.65" r="3.64"/>
      <circle class="cls-8" cx="701.96" cy="285.71" r="6.23"/>
      <circle class="cls-9" cx="705.52" cy="326.31" r="6.09"/>
      <circle class="cls-9" cx="703.32" cy="300.63" r="3.48"/>
      <circle class="cls-10" cx="716.32" cy="309.19" r="8.7"/>
      <circle class="cls-8" cx="689.14" cy="315.39" r="8.91"/>
      <circle class="cls-11" cx="687.93" cy="294.35" r="6.21"/>
    </g>
    <g>
      <rect class="cls-2" x="697.19" y="266.84" width="65.62" height="108.2" transform="translate(317.56 1003.43) rotate(-82.59)"/>
      <circle class="cls-8" cx="681.06" cy="313.65" r="4.62"/>
      <circle class="cls-9" cx="687.47" cy="297.94" r="4.73"/>
      <circle class="cls-9" cx="721.82" cy="324.16" r="2.99"/>
      <circle class="cls-8" cx="712.03" cy="295.64" r="10.04"/>
      <circle class="cls-10" cx="705.83" cy="315.24" r="8.08"/>
      <circle class="cls-11" cx="732.15" cy="304.04" r="8.13"/>
      <circle class="cls-10" cx="734.09" cy="326.9" r="3.56"/>
      <circle class="cls-8" cx="760.23" cy="312.55" r="6.1"/>
      <circle class="cls-9" cx="763.29" cy="352.34" r="5.97"/>
      <circle class="cls-9" cx="761.4" cy="327.17" r="3.41"/>
      <circle class="cls-10" cx="774.05" cy="335.7" r="8.52"/>
      <circle class="cls-8" cx="747.37" cy="341.47" r="8.73"/>
      <circle class="cls-11" cx="746.4" cy="320.86" r="6.08"/>
    </g>
    <g>
      <rect class="cls-2" x="734.39" y="302.11" width="108.06" height="65.54" transform="translate(-26.66 71.45) rotate(-5.1)"/>
      <circle class="cls-8" cx="739.12" cy="338.37" r="4.62"/>
      <circle class="cls-9" cx="741.97" cy="321.66" r="4.72"/>
      <circle class="cls-9" cx="781.14" cy="339.8" r="2.99"/>
      <circle class="cls-8" cx="765.42" cy="314.1" r="10.03"/>
      <circle class="cls-10" cx="763.61" cy="334.55" r="8.07"/>
      <circle class="cls-11" cx="786.85" cy="317.94" r="8.12"/>
      <circle class="cls-10" cx="793.69" cy="339.81" r="3.56"/>
      <circle class="cls-8" cx="816.07" cy="320.16" r="6.09"/>
      <circle class="cls-9" cx="827.66" cy="358.3" r="5.96"/>
      <circle class="cls-9" cx="820.38" cy="334.16" r="3.4"/>
      <circle class="cls-10" cx="834.55" cy="339.74" r="8.51"/>
      <circle class="cls-8" cx="809.79" cy="351.14" r="8.72"/>
      <circle class="cls-11" cx="804.39" cy="331.26" r="6.07"/>
    </g>
  </g>
  <g>
    <path class="cls-12" d="M1826.8,123v0a3.56,3.56,0,0,0-5.79,4.14,85.16,85.16,0,0,1,0,99,3.56,3.56,0,0,0,.81,5l0,0a3.56,3.56,0,0,0,5-.83A92.3,92.3,0,0,0,1826.8,123Z"/>
    <path class="cls-12" d="M1681.47,122.16h0a3.56,3.56,0,0,0-5,.82,92.3,92.3,0,0,0,0,107.31,3.56,3.56,0,0,0,5.79-4.13,85.19,85.19,0,0,1,0-99A3.56,3.56,0,0,0,1681.47,122.16Z"/>
    <path class="cls-12" d="M1704.09,139.6a3.56,3.56,0,0,0-.63-5h0a3.57,3.57,0,0,0-5,.62,67.31,67.31,0,0,0,0,82.83,3.56,3.56,0,0,0,5.61-4.37A60.18,60.18,0,0,1,1704.09,139.6Z"/>
    <path class="cls-12" d="M1800.14,134.6h0a3.56,3.56,0,0,0-.61,5,60.19,60.19,0,0,1,0,74.09,3.56,3.56,0,1,0,5.61,4.37,67.31,67.31,0,0,0,0-82.83A3.56,3.56,0,0,0,1800.14,134.6Z"/>
    <path class="cls-12" d="M1777.69,152.3a35.44,35.44,0,0,1,0,48.67,3.57,3.57,0,0,0,.15,5h0a3.54,3.54,0,0,0,5-.15h0a42.57,42.57,0,0,0,0-58.42,3.56,3.56,0,0,0-5.23,4.83Z"/>
    <path class="cls-12" d="M1723.31,207a3.56,3.56,0,0,0,2.59-6,35.44,35.44,0,0,1,0-48.67,3.55,3.55,0,0,0-5.14-4.91l0,0a42.55,42.55,0,0,0,0,58.42A3.57,3.57,0,0,0,1723.31,207Z"/>
    <path class="cls-12" d="M1797.93,325.15,1763.3,190.09a17.78,17.78,0,1,0-25.07-2.07,16.86,16.86,0,0,0,2.07,2.07l-34.63,135.06a3.55,3.55,0,0,0,2.55,4.33h0a3.27,3.27,0,0,0,.88.11,3.56,3.56,0,0,0,3.45-2.67l1.18-4.62a3.66,3.66,0,0,0,.58-.22l66.5-35L1791,326.92a3.56,3.56,0,0,0,3.45,2.67,3.34,3.34,0,0,0,.89-.11,3.54,3.54,0,0,0,2.56-4.32Zm-34.29-105.08-19.34-16.93,2.44-9.54a16,16,0,0,0,10.11,0ZM1751.8,166a10.67,10.67,0,1,1-10.67,10.67A10.67,10.67,0,0,1,1751.8,166Zm-9.48,44.89,21.42,18.75-31.66,21.1ZM1716.1,313.09l12.77-49.79,43.4,20.24Zm18-55.19,33.49-22.32,11.05,43.1Z"/>
  </g>
  <g>
    <path class="cls-12" d="M175.49,274a32.84,32.84,0,1,0-32.83-32.83A32.83,32.83,0,0,0,175.49,274Zm0-58.37A25.54,25.54,0,1,1,150,241.21,25.53,25.53,0,0,1,175.49,215.67Z"/>
    <path class="cls-12" d="M175.49,259.45a18.25,18.25,0,1,0-18.24-18.24A18.24,18.24,0,0,0,175.49,259.45Z"/>
    <path class="cls-12" d="M299.54,274a32.84,32.84,0,1,0-32.83-32.83A32.83,32.83,0,0,0,299.54,274Zm0-58.37A25.54,25.54,0,1,1,274,241.21,25.53,25.53,0,0,1,299.54,215.67Z"/>
    <path class="cls-12" d="M299.54,259.45a18.25,18.25,0,1,0-18.24-18.24A18.24,18.24,0,0,0,299.54,259.45Z"/>
    <path class="cls-12" d="M222.92,270.39A10.95,10.95,0,1,0,212,259.45,10.94,10.94,0,0,0,222.92,270.39Zm0-14.59a3.65,3.65,0,1,1-3.65,3.65A3.64,3.64,0,0,1,222.92,255.8Z"/>
    <path class="cls-12" d="M241.17,259.45a10.95,10.95,0,1,0,10.94-10.95A10.94,10.94,0,0,0,241.17,259.45Zm14.59,0a3.65,3.65,0,1,1-3.65-3.65A3.65,3.65,0,0,1,255.76,259.45Z"/>
    <path class="cls-12" d="M259.74,219.46H215.68v22h44.06Zm-7.82,14.21H222.78v-7.11h29.14Z"/>
    <path class="cls-12" d="M215.68,208.08a3.81,3.81,0,0,1,4-3.55h36.06a3.58,3.58,0,1,1,0,7.11H219.68A3.81,3.81,0,0,1,215.68,208.08Z"/>
    <circle class="cls-12" cx="270.4" cy="208.08" r="3.55"/>
    <circle class="cls-12" cx="205.02" cy="208.08" r="3.55"/>
    <path class="cls-12" d="M321.58,161.62a3.58,3.58,0,1,0-7.11,0v24.7a4,4,0,0,1-4,4H132.26a4,4,0,0,0-4,4V284.4a4,4,0,0,0,4,4h14a4,4,0,0,1,4,4v6.92a4,4,0,0,0,4,4h35.35a4,4,0,0,0,4-4V292.4a4,4,0,0,1,4-4h79.42a4,4,0,0,1,4,4v6.92a4,4,0,0,0,4,4h36.07a4,4,0,0,0,4-4V292.4a4,4,0,0,1,4-4h14a4,4,0,0,0,4-4V194.32a4,4,0,0,0-4-4H325.58a4,4,0,0,1-4-4ZM186.54,292a3.8,3.8,0,0,1-4,3.55H161.4a3.58,3.58,0,1,1,0-7.1h21.14A3.81,3.81,0,0,1,186.54,292ZM318,292a3.8,3.8,0,0,1-4,3.55H292.88a3.58,3.58,0,1,1,0-7.1H314A3.81,3.81,0,0,1,318,292Zm21.32-14.66a4,4,0,0,1-4,4h-196a4,4,0,0,1-4-4V201.42a4,4,0,0,1,4-4h196a4,4,0,0,1,4,4Z"/>
    <circle class="cls-12" cx="318.02" cy="146.25" r="3.55"/>
  </g>
  <g>
    <path class="cls-13" d="M852.23,157h227.54a37.36,37.36,0,0,1,37.64,37.63V708.37A37.36,37.36,0,0,1,1079.77,746H852.23c-20.13,0-37.64-16.63-37.64-37.63V194.63C814.59,173.63,832.1,157,852.23,157Zm95.39,547h37.63c13.13,0,13.13,21,0,21H947.62C934.49,725,934.49,704,947.62,704Zm37.63,4.38H947.62a6.14,6.14,0,1,0,0,12.25h37.63C993.13,720.62,994,708.37,985.25,708.37Zm-42-526.86h46.38c7.88,0,7,11.37,0,11.37H943.25C935.37,192.88,936.24,181.51,943.25,181.51Zm46.38,3.37H943.25c-2.63,0-2.63,4.5,0,4.5h46.38C992.26,189.38,992.26,184.88,989.63,184.88Zm-153.16,29H1096.4c1.75,0,3.5,1.75,3.5,4.37V684.74c0,2.62-1.75,4.37-3.5,4.37H836.47a4.13,4.13,0,0,1-4.37-4.37V218.26A4.13,4.13,0,0,1,836.47,213.89ZM1093.78,220H839.1v462.1h254.68Zm-14-56.88H852.23c-16.63,0-30.64,14-30.64,31.5V708.37A31,31,0,0,0,852.23,739h227.54c17.51,0,31.51-14,31.51-30.63V194.63A31.37,31.37,0,0,0,1079.77,163.13Z"/>
    <circle class="cls-13" cx="919" cy="187" r="8.5"/>
    <circle class="cls-13" cx="919" cy="187" r="4.5"/>
    <circle class="cls-13" cx="1009" cy="187" r="6"/>
    <circle class="cls-13" cx="1009" cy="187" r="2.5"/>
    <circle class="cls-13" cx="1024" cy="187" r="6"/>
    <circle class="cls-13" cx="1024" cy="187" r="2.5"/>
    <circle class="cls-13" cx="1055" cy="187" r="7"/>
    <circle class="cls-13" cx="1055" cy="187" r="2.92"/>
  </g>
  <path class="cls-14" d="M851,485.09c8.19-.17,17.54-.33,27.88-.42,12.66-.11,19.15-.17,26.88,0,15,.33,14.23.94,27.88,1.26,13.84.33,25.13-.05,35.84-.42,10.18-.34,8.19-.45,18.92-.84,11.23-.4,25.29-.89,42.82-.42,8.58.23,8.13.47,18.91.84,13,.45,23.69.47,30.87.42"/>
  <g>
    <path class="cls-15" d="M856.06,241.1h7.08v16h16.17v-16h7.07V281h-7.07V263.31H863.14V281h-7.08Z"/>
    <path class="cls-15" d="M901.39,241.1h7.07V281h-7.07Z"/>
    <path class="cls-15" d="M923.47,241.1h10.67c12.2,0,19.4,6.59,19.4,19.77s-7.2,20.13-19,20.13h-11Zm10.19,34.17c8.05,0,12.62-4.58,12.62-14.4s-4.57-14-12.62-14h-3.12v28.43Z"/>
    <path class="cls-15" d="M966.47,241.1h10.68c12.2,0,19.4,6.59,19.4,19.77s-7.2,20.13-19,20.13h-11Zm10.19,34.17c8.05,0,12.63-4.58,12.63-14.4s-4.58-14-12.63-14h-3.11v28.43Z"/>
    <path class="cls-15" d="M1009.48,241.1h24v6h-17v10.19h14.34v6h-14.34V275h17.57v6h-24.64Z"/>
    <path class="cls-15" d="M1047.18,241.1h7.26l12.44,22.45L1071,272h.24c-.3-4.09-.91-9.15-.91-13.6V241.1h6.77V281h-7.26l-12.45-22.45-4.08-8.48H1053c.31,4.21.92,9,.92,13.48V281h-6.77Z"/>
  </g>
  <g>
    <path class="cls-15" d="M853.32,340.88l4.15-4.82a15.86,15.86,0,0,0,10.37,4.51c4.51,0,6.95-2,6.95-5.12,0-3.3-2.56-4.34-6.16-5.86l-5.49-2.38c-3.9-1.65-8-4.76-8-10.61,0-6.35,5.61-11.23,13.42-11.23a17.62,17.62,0,0,1,12.26,5.06l-3.6,4.52a13,13,0,0,0-8.66-3.42c-3.78,0-6.29,1.77-6.29,4.7,0,3.11,3,4.27,6.35,5.61L874,324.1c4.7,2,8,5,8,10.8,0,6.46-5.37,11.83-14.33,11.83A20.67,20.67,0,0,1,853.32,340.88Z"/>
    <path class="cls-15" d="M889.74,306.1h7.07V346h-7.07Z"/>
    <path class="cls-15" d="M905.29,326.17c0-13.05,8.24-20.8,18.85-20.8a16.44,16.44,0,0,1,12.08,5.06L932.44,315a10.83,10.83,0,0,0-8.06-3.48c-7.07,0-11.83,5.49-11.83,14.46s4.21,14.58,12.2,14.58a8.84,8.84,0,0,0,5.74-1.77v-8.6h-7.57v-5.8h13.91V342a18.25,18.25,0,0,1-12.75,4.76C913.28,346.73,905.29,339.41,905.29,326.17Z"/>
    <path class="cls-15" d="M946.1,306.1h7.26l12.44,22.45,4.09,8.48h.24c-.3-4.09-.91-9.15-.91-13.6V306.1H976V346h-7.26l-12.44-22.45-4.09-8.48H952c.3,4.21.91,9,.91,13.48V346H946.1Z"/>
    <path class="cls-15" d="M994.35,306.1h8.3l13,39.9h-7.44l-3.11-10.8H991.67L988.55,346h-7.19Zm-1,23.55h10.19l-1.4-4.88c-1.28-4.21-2.44-8.78-3.6-13.18h-.25c-1.09,4.46-2.25,9-3.53,13.18Z"/>
    <path class="cls-15" d="M1021,306.1h7.07V340h16.6v6H1021Z"/>
    <path class="cls-15" d="M1047.79,340.88l4.14-4.82a15.89,15.89,0,0,0,10.37,4.51c4.52,0,7-2,7-5.12,0-3.3-2.56-4.34-6.16-5.86l-5.49-2.38c-3.91-1.65-8.06-4.76-8.06-10.61,0-6.35,5.62-11.23,13.43-11.23a17.62,17.62,0,0,1,12.26,5.06l-3.6,4.52a13,13,0,0,0-8.66-3.42c-3.79,0-6.29,1.77-6.29,4.7,0,3.11,3,4.27,6.35,5.61l5.43,2.26c4.69,2,8,5,8,10.8,0,6.46-5.37,11.83-14.34,11.83A20.64,20.64,0,0,1,1047.79,340.88Z"/>
  </g>
  <g>
    <path class="cls-15" d="M897.62,522.19h3.51c2.4,0,4,.81,4,2.88a2.57,2.57,0,0,1-1.73,2.57v.08a2.71,2.71,0,0,1,2.42,2.82c0,2.33-1.84,3.46-4.49,3.46h-3.76Zm3.24,5c2,0,2.85-.74,2.85-1.94,0-1.37-.94-1.89-2.78-1.89h-1.82v3.83Zm.31,5.6c2,0,3.22-.74,3.22-2.32s-1.15-2.13-3.22-2.13h-2.06v4.45Z"/>
    <path class="cls-15" d="M907.11,537.58l.28-1.17a2.34,2.34,0,0,0,.67.13c1,0,1.62-.79,2-1.87l.2-.65-3.51-8.77h1.53l1.78,4.84c.27.76.58,1.66.85,2.47H911c.25-.79.5-1.69.74-2.47l1.56-4.84h1.44l-3.29,9.47c-.61,1.73-1.51,3-3.28,3A2.82,2.82,0,0,1,907.11,537.58Z"/>
    <path class="cls-15" d="M920.5,522.19h1.8l2.27,6.3c.29.81.56,1.66.84,2.47h.08c.28-.81.52-1.66.81-2.47l2.23-6.3h1.82V534h-1.41v-6.5c0-1,.13-2.45.2-3.49h-.07l-.94,2.68-2.23,6.12h-1l-2.23-6.12-.94-2.68h-.07c.07,1,.18,2.45.18,3.49V534H920.5Z"/>
    <path class="cls-15" d="M933.08,531.73c0-1.91,1.64-2.86,5.37-3.28,0-1.11-.36-2.19-1.8-2.19a4.86,4.86,0,0,0-2.62.93l-.57-1A6.5,6.5,0,0,1,936.9,525c2.14,0,3,1.43,3,3.6V534h-1.22l-.13-1h-.05a4.72,4.72,0,0,1-2.9,1.26A2.39,2.39,0,0,1,933.08,531.73Zm5.37.13v-2.43c-2.92.36-3.93,1.08-3.93,2.19a1.36,1.36,0,0,0,1.55,1.41A3.58,3.58,0,0,0,938.45,531.86Z"/>
    <path class="cls-15" d="M942.87,531.3v-4.84h-1.29v-1.12l1.36-.09.18-2.45h1.25v2.45h2.36v1.21h-2.36v4.86c0,1.08.34,1.69,1.35,1.69a3.47,3.47,0,0,0,1-.23l.29,1.11a5.49,5.49,0,0,1-1.62.33C943.5,534.22,942.87,533,942.87,531.3Z"/>
    <path class="cls-15" d="M948.78,531.3v-4.84h-1.3v-1.12l1.37-.09.18-2.45h1.24v2.45h2.36v1.21h-2.36v4.86c0,1.08.34,1.69,1.35,1.69a3.4,3.4,0,0,0,1-.23l.29,1.11a5.49,5.49,0,0,1-1.62.33C949.41,534.22,948.78,533,948.78,531.3Z"/>
    <path class="cls-15" d="M954.79,521.18h1.47v3.49l0,1.8a4.2,4.2,0,0,1,2.92-1.44c1.83,0,2.66,1.19,2.66,3.42V534h-1.47v-5.35c0-1.64-.51-2.34-1.66-2.34-.9,0-1.51.47-2.4,1.35V534h-1.47Z"/>
    <path class="cls-15" d="M964.11,529.64c0-2.86,1.93-4.61,3.93-4.61,2.23,0,3.49,1.61,3.49,4.11a6.65,6.65,0,0,1,0,.84h-5.91a2.91,2.91,0,0,0,2.92,3,3.92,3.92,0,0,0,2.18-.69l.52,1a5.26,5.26,0,0,1-2.88.9C966,534.22,964.11,532.51,964.11,529.64Zm6.12-.72c0-1.76-.79-2.72-2.16-2.72a2.71,2.71,0,0,0-2.52,2.72Z"/>
    <path class="cls-15" d="M972.91,525.25h1.52l1.29,5.06c.2.83.36,1.62.52,2.43h.08c.19-.81.37-1.62.59-2.43l1.35-5.06h1.44l1.37,5.06c.22.83.41,1.62.61,2.43h.07c.2-.81.36-1.6.54-2.43l1.28-5.06H985L982.64,534h-1.8l-1.26-4.7c-.22-.83-.38-1.64-.6-2.52h-.07c-.2.88-.38,1.71-.61,2.54L977.07,534h-1.73Z"/>
    <path class="cls-15" d="M993.42,522.19h1.69l4,11.81H997.5l-1.11-3.6h-4.31L991,534h-1.53Zm-1,7H996l-.56-1.8c-.43-1.31-.81-2.61-1.19-4h-.07c-.36,1.37-.74,2.67-1.17,4Z"/>
    <path class="cls-15" d="M1000.81,532.24V521.18h1.48v11.16c0,.47.2.65.41.65a1.52,1.52,0,0,0,.33,0l.2,1.11a2,2,0,0,1-.85.15C1001.26,534.22,1000.81,533.51,1000.81,532.24Z"/>
    <path class="cls-15" d="M1007,533.1h-.05l-.13.9h-1.19V521.18h1.48v3.49l0,1.59a4.37,4.37,0,0,1,2.74-1.23c2.27,0,3.48,1.75,3.48,4.45,0,3-1.79,4.74-3.79,4.74A4,4,0,0,1,1007,533.1Zm4.76-3.6c0-1.93-.65-3.22-2.31-3.22a3.61,3.61,0,0,0-2.34,1.18v4.6a3.44,3.44,0,0,0,2.14.91C1010.64,533,1011.71,531.66,1011.71,529.5Z"/>
    <path class="cls-15" d="M1014.93,531.73c0-1.91,1.63-2.86,5.36-3.28,0-1.11-.36-2.19-1.8-2.19a4.8,4.8,0,0,0-2.61.93l-.58-1a6.53,6.53,0,0,1,3.44-1.14c2.15,0,3,1.43,3,3.6V534h-1.23l-.12-1h-.06a4.69,4.69,0,0,1-2.9,1.26A2.38,2.38,0,0,1,1014.93,531.73Zm5.36.13v-2.43c-2.92.36-3.92,1.08-3.92,2.19a1.35,1.35,0,0,0,1.54,1.41A3.56,3.56,0,0,0,1020.29,531.86Z"/>
    <path class="cls-15" d="M1023.75,533l.73-1a4,4,0,0,0,2.58,1c1.15,0,1.73-.61,1.73-1.36,0-.91-1-1.3-2-1.66-1.24-.45-2.56-1-2.56-2.52s1.12-2.49,3-2.49a4.47,4.47,0,0,1,2.72,1l-.73.94a3.22,3.22,0,0,0-2-.77c-1.1,0-1.61.59-1.61,1.26s.9,1.13,1.89,1.51c1.26.47,2.67,1,2.67,2.65,0,1.42-1.13,2.61-3.21,2.61A5.26,5.26,0,0,1,1023.75,533Z"/>
    <path class="cls-15" d="M1032.21,522.48a1,1,0,1,1,1,1A.93.93,0,0,1,1032.21,522.48Zm.23,2.77h1.48V534h-1.48Z"/>
  </g>
  <g>
    <path class="cls-15" d="M876.44,547.5h3c2.36,0,3.94.78,3.94,3.09s-1.57,3.25-3.87,3.25h-1.73V558h-1.33Zm2.9,5.25c1.82,0,2.7-.67,2.7-2.16s-.93-2-2.77-2h-1.5v4.18Z"/>
    <path class="cls-15" d="M885.61,553.66V547.5h1.33v6.19c0,2.53,1.07,3.33,2.45,3.33s2.48-.8,2.48-3.33V547.5h1.28v6.16c0,3.38-1.62,4.53-3.76,4.53S885.61,557,885.61,553.66Z"/>
    <path class="cls-15" d="M896.14,547.5h3.12c2.13,0,3.6.72,3.6,2.56a2.3,2.3,0,0,1-1.54,2.29v.06a2.42,2.42,0,0,1,2.15,2.52c0,2.06-1.64,3.07-4,3.07h-3.34ZM899,552c1.79,0,2.53-.65,2.53-1.72,0-1.22-.84-1.68-2.47-1.68h-1.62V552Zm.27,5c1.81,0,2.86-.65,2.86-2.06s-1-1.89-2.86-1.89h-1.83v4Z"/>
    <path class="cls-15" d="M905.7,547.5H907v9.36h4.6V558H905.7Z"/>
    <path class="cls-15" d="M913.64,547.5H915V558h-1.33Z"/>
    <path class="cls-15" d="M917.24,556.64l.8-.93a4.09,4.09,0,0,0,2.9,1.31c1.37,0,2.19-.68,2.19-1.71s-.75-1.41-1.74-1.86l-1.51-.65a3,3,0,0,1-2.13-2.71c0-1.6,1.39-2.78,3.3-2.78a4.37,4.37,0,0,1,3.1,1.29l-.72.87a3.32,3.32,0,0,0-2.38-1c-1.17,0-1.95.59-1.95,1.53s.91,1.4,1.74,1.75l1.49.64c1.22.53,2.16,1.25,2.16,2.8s-1.36,3-3.57,3A5.1,5.1,0,0,1,917.24,556.64Z"/>
    <path class="cls-15" d="M926.71,547.5H928v4.4h4.88v-4.4h1.35V558h-1.35v-5H928v5h-1.33Z"/>
    <path class="cls-15" d="M937.3,547.5h6.05v1.12h-4.72v3.3h4v1.13h-4v3.81h4.88V558H937.3Z"/>
    <path class="cls-15" d="M945.9,547.5h2.62c3.23,0,5,1.87,5,5.2s-1.73,5.3-4.9,5.3H945.9Zm2.52,9.41c2.45,0,3.69-1.55,3.69-4.21s-1.24-4.11-3.69-4.11h-1.2v8.32Z"/>
    <path class="cls-15" d="M961.42,547.5h1.5l3.55,10.5h-1.42l-1-3.2h-3.83l-1,3.2h-1.36Zm-.85,6.23h3.15l-.5-1.61c-.38-1.16-.72-2.32-1.05-3.53h-.07c-.32,1.21-.65,2.37-1,3.53Z"/>
    <path class="cls-15" d="M968.12,547.5h3c2.36,0,3.94.78,3.94,3.09s-1.57,3.25-3.87,3.25h-1.73V558h-1.33Zm2.9,5.25c1.82,0,2.7-.67,2.7-2.16s-.93-2-2.77-2h-1.5v4.18Z"/>
    <path class="cls-15" d="M977.33,547.5h3.29c2.14,0,3.68.77,3.68,3a2.86,2.86,0,0,1-2.37,3L984.6,558h-1.5l-2.53-4.43h-1.91V558h-1.33Zm3.09,5c1.64,0,2.55-.67,2.55-2s-.91-1.88-2.55-1.88h-1.76v3.91Z"/>
    <path class="cls-15" d="M986.6,547.5h1.33V558H986.6Z"/>
    <path class="cls-15" d="M991,547.5h1.33v9.36h4.59V558H991Z"/>
    <path class="cls-15" d="M1002.09,556.91h2.33v-7.52h-1.85v-.85a6.18,6.18,0,0,0,2.16-.75h1v9.12h2.11V558h-5.76Z"/>
    <path class="cls-15" d="M1009.57,557.22c3.08-3.06,4.81-4.9,4.81-6.55a1.81,1.81,0,0,0-1.94-2,3,3,0,0,0-2.18,1.23l-.75-.75a4,4,0,0,1,3.09-1.55,2.84,2.84,0,0,1,3.06,3c0,1.92-1.75,3.82-4.17,6.35.56-.05,1.19-.1,1.72-.1h3V558h-6.6Z"/>
    <path class="cls-15" d="M1017.8,560a2.13,2.13,0,0,0,1.44-2,.44.44,0,0,1-.16,0,.89.89,0,0,1-1-.92.92.92,0,0,1,1-.92c.69,0,1.1.59,1.1,1.55a3.17,3.17,0,0,1-2.09,3Z"/>
    <path class="cls-15" d="M1025.19,557.22c3.07-3.06,4.8-4.9,4.8-6.55a1.81,1.81,0,0,0-1.93-2,3,3,0,0,0-2.18,1.23l-.75-.75a4,4,0,0,1,3.08-1.55,2.84,2.84,0,0,1,3.06,3c0,1.92-1.74,3.82-4.16,6.35.56-.05,1.18-.1,1.71-.1h3V558h-6.6Z"/>
    <path class="cls-15" d="M1033.37,552.86c0-3.42,1.23-5.26,3.28-5.26s3.26,1.84,3.26,5.26-1.23,5.33-3.26,5.33S1033.37,556.29,1033.37,552.86Zm5.26,0c0-3-.8-4.21-2-4.21s-2,1.22-2,4.21.8,4.28,2,4.28S1038.63,555.86,1038.63,552.86Z"/>
    <path class="cls-15" d="M1042,556.91h2.34v-7.52h-1.86v-.85a6.18,6.18,0,0,0,2.16-.75h1v9.12h2.11V558H1042Z"/>
    <path class="cls-15" d="M1049.7,557.12l.74-.83a2.24,2.24,0,0,0,1.68.81c1.44,0,2.66-1.12,2.7-4.38a3.21,3.21,0,0,1-2.4,1.31c-1.76,0-2.89-1.06-2.89-3.15a3.08,3.08,0,0,1,3-3.28c2,0,3.52,1.63,3.52,4.91,0,4.1-1.86,5.68-3.89,5.68A3.27,3.27,0,0,1,1049.7,557.12Zm3-4.08a2.71,2.71,0,0,0,2.14-1.36c-.17-2-1-3-2.25-3-1,0-1.78.89-1.78,2.24S1051.38,553,1052.65,553Z"/>
  </g>
  <g>
    <path d="M853,418.93a1.72,1.72,0,1,1,1.72,1.65A1.59,1.59,0,0,1,853,418.93Zm.27,3.8h2.87V435h-2.87Z"/>
    <path d="M859.8,422.73h2.37l.21,1.65h.1a5.64,5.64,0,0,1,4-1.95c2.62,0,3.77,1.77,3.77,4.87V435H867.4v-7.32c0-2-.58-2.78-1.93-2.78-1.07,0-1.77.53-2.8,1.53V435H859.8Z"/>
    <path d="M879.23,430.85V425h-1.75v-2.15l1.9-.12.35-3.35h2.39v3.35h3.13V425h-3.13v5.85c0,1.45.55,2.15,1.73,2.15a3.51,3.51,0,0,0,1.27-.27l.5,2.12a7.65,7.65,0,0,1-2.5.45C880.28,435.3,879.23,433.5,879.23,430.85Z"/>
    <path d="M887.83,417.35h2.87v4.55l-.1,2.38a5.6,5.6,0,0,1,3.92-1.85c2.63,0,3.78,1.77,3.78,4.87V435h-2.88v-7.32c0-2-.57-2.78-1.92-2.78-1.08,0-1.78.53-2.8,1.53V435h-2.87Z"/>
    <path d="M901,428.88c0-4,2.77-6.45,5.64-6.45,3.33,0,5.08,2.4,5.08,5.82a6.33,6.33,0,0,1-.13,1.4h-7.8a3.52,3.52,0,0,0,3.63,3.43,5.17,5.17,0,0,0,2.85-.9l1,1.8a7.77,7.77,0,0,1-4.2,1.32C903.62,435.3,901,432.93,901,428.88Zm8.22-1.18c0-1.9-.83-3.05-2.5-3.05-1.45,0-2.7,1.08-3,3.05Z"/>
    <path d="M918.65,428.88a6.05,6.05,0,0,1,6.15-6.45,5.32,5.32,0,0,1,3.6,1.37l-1.4,1.88a3,3,0,0,0-2-.9c-2,0-3.35,1.62-3.35,4.1S923,433,924.87,433a4.08,4.08,0,0,0,2.53-1.05l1.17,1.9a6.13,6.13,0,0,1-4,1.5C921.22,435.3,918.65,433,918.65,428.88Z"/>
    <path d="M929.6,428.88c0-4.1,2.78-6.45,5.82-6.45s5.85,2.35,5.85,6.45-2.77,6.42-5.85,6.42S929.6,433,929.6,428.88Zm8.72,0c0-2.48-1.1-4.1-2.9-4.1s-2.87,1.62-2.87,4.1,1.07,4.07,2.87,4.07S938.32,431.33,938.32,428.88Z"/>
    <path d="M944.12,422.73h2.38l.2,1.65h.1a5.68,5.68,0,0,1,4-1.95c2.63,0,3.78,1.77,3.78,4.87V435h-2.88v-7.32c0-2-.57-2.78-1.92-2.78-1.08,0-1.78.53-2.8,1.53V435h-2.88Z"/>
    <path d="M957.33,428.88a6,6,0,0,1,6.14-6.45,5.3,5.3,0,0,1,3.6,1.37l-1.4,1.88a3,3,0,0,0-2-.9c-2,0-3.35,1.62-3.35,4.1s1.35,4.07,3.28,4.07a4.05,4.05,0,0,0,2.52-1.05l1.18,1.9a6.13,6.13,0,0,1-4,1.5C959.9,435.3,957.33,433,957.33,428.88Z"/>
    <path d="M969.67,422.73h2.38l.2,2.17h.1a4.15,4.15,0,0,1,3.47-2.47,3,3,0,0,1,1.4.25l-.5,2.5a3.85,3.85,0,0,0-1.27-.2c-1,0-2.15.67-2.9,2.52V435h-2.88Z"/>
    <path d="M978,428.88c0-4,2.77-6.45,5.65-6.45,3.32,0,5.07,2.4,5.07,5.82a7.12,7.12,0,0,1-.12,1.4h-7.8a3.51,3.51,0,0,0,3.62,3.43,5.17,5.17,0,0,0,2.85-.9l1,1.8a7.8,7.8,0,0,1-4.2,1.32C980.6,435.3,978,432.93,978,428.88Zm8.22-1.18c0-1.9-.82-3.05-2.5-3.05-1.45,0-2.7,1.08-2.95,3.05Z"/>
    <path d="M991.6,430.85V425h-1.75v-2.15l1.9-.12.35-3.35h2.4v3.35h3.12V425H994.5v5.85c0,1.45.55,2.15,1.72,2.15a3.52,3.52,0,0,0,1.28-.27l.5,2.12a7.76,7.76,0,0,1-2.5.45C992.65,435.3,991.6,433.5,991.6,430.85Z"/>
    <path d="M999,428.88c0-4,2.77-6.45,5.65-6.45,3.32,0,5.07,2.4,5.07,5.82a7.12,7.12,0,0,1-.12,1.4h-7.8a3.51,3.51,0,0,0,3.62,3.43,5.17,5.17,0,0,0,2.85-.9l1,1.8a7.8,7.8,0,0,1-4.2,1.32C1001.65,435.3,999,432.93,999,428.88Zm8.22-1.18c0-1.9-.82-3.05-2.5-3.05-1.45,0-2.7,1.08-3,3.05Z"/>
    <path d="M1014.5,439.82l.55-2.15a3.56,3.56,0,0,0,1.05.2c1.1,0,1.4-.77,1.4-2.2V422.73h2.9v12.89c0,2.6-1,4.53-3.9,4.53A5.46,5.46,0,0,1,1014.5,439.82Zm2.72-20.89a1.73,1.73,0,1,1,1.73,1.65A1.59,1.59,0,0,1,1017.22,418.93Z"/>
    <path d="M1023.92,430.43v-7.7h2.88v7.32c0,2,.57,2.78,1.9,2.78,1.07,0,1.8-.5,2.72-1.7v-8.4h2.88V435H1032l-.23-1.8h-.07a5,5,0,0,1-4,2.1C1025.07,435.3,1023.92,433.53,1023.92,430.43Z"/>
    <path d="M1038,422.73h2.37l.2,1.65h.1a5.68,5.68,0,0,1,4-1.95c2.62,0,3.77,1.77,3.77,4.87V435h-2.87v-7.32c0-2-.58-2.78-1.93-2.78-1.07,0-1.77.53-2.8,1.53V435H1038Z"/>
    <path d="M1051.12,437.22a3.17,3.17,0,0,1,1.75-2.62v-.1a2.32,2.32,0,0,1-1.1-2.05,3,3,0,0,1,1.35-2.27v-.1a4.17,4.17,0,0,1-1.6-3.25c0-2.83,2.28-4.4,4.85-4.4a5.38,5.38,0,0,1,1.8.3h4.4v2.12h-2.25a3.31,3.31,0,0,1,.7,2.08c0,2.72-2,4.17-4.65,4.17a4.62,4.62,0,0,1-1.67-.32,1.38,1.38,0,0,0-.6,1.17c0,.7.5,1.13,2,1.13h2.17c3,0,4.5.9,4.5,3,0,2.42-2.55,4.32-6.55,4.32C1053.3,440.42,1051.12,439.37,1051.12,437.22Zm8.88-.65c0-.95-.78-1.22-2.18-1.22h-1.67a6.31,6.31,0,0,1-1.68-.18,2.07,2.07,0,0,0-1,1.63c0,1.1,1.2,1.75,3.15,1.75S1060,437.62,1060,436.57Zm-1.5-9.74a2.16,2.16,0,1,0-4.28,0,2.16,2.16,0,1,0,4.28,0Z"/>
    <path d="M1065,431.85v-14.5h2.87V432c0,.7.33.95.63.95a1.76,1.76,0,0,0,.45-.05l.37,2.15a3.92,3.92,0,0,1-1.52.25C1065.7,435.3,1065,434,1065,431.85Z"/>
    <path d="M1070.92,428.88c0-4,2.78-6.45,5.65-6.45,3.33,0,5.08,2.4,5.08,5.82a6.33,6.33,0,0,1-.13,1.4h-7.8a3.52,3.52,0,0,0,3.63,3.43,5.17,5.17,0,0,0,2.85-.9l1,1.8a7.77,7.77,0,0,1-4.2,1.32C1073.57,435.3,1070.92,432.93,1070.92,428.88Zm8.23-1.18c0-1.9-.83-3.05-2.5-3.05-1.45,0-2.7,1.08-3,3.05Z"/>
  </g>
  <g>
    <path class="cls-15" d="M874.26,386.65h2.9v6.58h6.63v-6.58h2.9V403h-2.9v-7.25h-6.63V403h-2.9Z"/>
    <path class="cls-15" d="M890.46,398.43v-7.7h2.88v7.32c0,2,.57,2.78,1.9,2.78,1.07,0,1.8-.5,2.72-1.7v-8.4h2.88V403h-2.35l-.23-1.8h-.07a5,5,0,0,1-4,2.1C891.61,403.3,890.46,401.53,890.46,398.43Z"/>
    <path class="cls-15" d="M904.49,390.73h2.37l.2,1.65h.1a5.68,5.68,0,0,1,4-1.95c2.62,0,3.77,1.77,3.77,4.87V403h-2.87v-7.32c0-2-.58-2.78-1.93-2.78-1.07,0-1.77.53-2.8,1.53V403h-2.87Z"/>
    <path class="cls-15" d="M918.91,398.85V393h-1.75v-2.15l1.9-.12.35-3.35h2.4v3.35h3.13V393h-3.13v5.85c0,1.45.55,2.15,1.73,2.15a3.51,3.51,0,0,0,1.27-.27l.5,2.12a7.65,7.65,0,0,1-2.5.45C920,403.3,918.91,401.5,918.91,398.85Z"/>
    <path class="cls-15" d="M927.24,386.93a1.73,1.73,0,1,1,1.72,1.65A1.59,1.59,0,0,1,927.24,386.93Zm.27,3.8h2.88V403h-2.88Z"/>
    <path class="cls-15" d="M934.06,390.73h2.38l.2,1.65h.1a5.68,5.68,0,0,1,4-1.95c2.63,0,3.77,1.77,3.77,4.87V403h-2.87v-7.32c0-2-.57-2.78-1.92-2.78-1.08,0-1.78.53-2.8,1.53V403h-2.88Z"/>
    <path class="cls-15" d="M947.24,405.22A3.15,3.15,0,0,1,949,402.6v-.1a2.3,2.3,0,0,1-1.1-2.05,3,3,0,0,1,1.35-2.27v-.1a4.14,4.14,0,0,1-1.6-3.25c0-2.83,2.27-4.4,4.85-4.4a5.42,5.42,0,0,1,1.8.3h4.39v2.12h-2.24a3.37,3.37,0,0,1,.7,2.08c0,2.72-2,4.17-4.65,4.17a4.63,4.63,0,0,1-1.68-.32,1.41,1.41,0,0,0-.6,1.17c0,.7.5,1.13,2,1.13h2.18c2.94,0,4.49.9,4.49,3,0,2.42-2.54,4.32-6.54,4.32C949.41,408.42,947.24,407.37,947.24,405.22Zm8.87-.65c0-.95-.77-1.22-2.17-1.22h-1.68a6.23,6.23,0,0,1-1.67-.18,2.07,2.07,0,0,0-1,1.63c0,1.1,1.2,1.75,3.15,1.75S956.11,405.62,956.11,404.57Zm-1.5-9.74a2.15,2.15,0,1,0-4.27,0,2.16,2.16,0,1,0,4.27,0Z"/>
    <path class="cls-15" d="M964.84,401.6l1.35-1.85a5.47,5.47,0,0,0,3.4,1.38c1.32,0,1.95-.63,1.95-1.48,0-1-1.33-1.47-2.63-2-1.62-.6-3.37-1.53-3.37-3.58s1.7-3.67,4.45-3.67a6.65,6.65,0,0,1,4.09,1.47l-1.32,1.75a4.67,4.67,0,0,0-2.7-1c-1.22,0-1.82.58-1.82,1.35,0,1,1.17,1.35,2.5,1.83,1.67.62,3.52,1.42,3.52,3.72,0,2.1-1.67,3.8-4.77,3.8A7.73,7.73,0,0,1,964.84,401.6Z"/>
    <path class="cls-15" d="M976.76,398.85V393H975v-2.15l1.9-.12.35-3.35h2.4v3.35h3.13V393h-3.13v5.85c0,1.45.55,2.15,1.73,2.15a3.51,3.51,0,0,0,1.27-.27l.5,2.12a7.65,7.65,0,0,1-2.5.45C977.81,403.3,976.76,401.5,976.76,398.85Z"/>
    <path class="cls-15" d="M985.09,386.93a1.73,1.73,0,1,1,1.72,1.65A1.59,1.59,0,0,1,985.09,386.93Zm.27,3.8h2.88V403h-2.88Z"/>
    <path class="cls-15" d="M991.91,390.73h2.38l.2,1.65h.1a5.68,5.68,0,0,1,4-1.95c2.62,0,3.77,1.77,3.77,4.87V403h-2.87v-7.32c0-2-.57-2.78-1.92-2.78-1.08,0-1.78.53-2.8,1.53V403h-2.88Z"/>
    <path class="cls-15" d="M1005.09,405.22a3.15,3.15,0,0,1,1.75-2.62v-.1a2.3,2.3,0,0,1-1.1-2.05,3,3,0,0,1,1.35-2.27v-.1a4.14,4.14,0,0,1-1.6-3.25c0-2.83,2.27-4.4,4.85-4.4a5.32,5.32,0,0,1,1.79.3h4.4v2.12h-2.24a3.36,3.36,0,0,1,.69,2.08c0,2.72-2,4.17-4.64,4.17a4.63,4.63,0,0,1-1.68-.32,1.41,1.41,0,0,0-.6,1.17c0,.7.5,1.13,2,1.13h2.18c2.94,0,4.49.9,4.49,3,0,2.42-2.54,4.32-6.54,4.32C1007.26,408.42,1005.09,407.37,1005.09,405.22Zm8.87-.65c0-.95-.77-1.22-2.17-1.22h-1.68a6.23,6.23,0,0,1-1.67-.18,2.07,2.07,0,0,0-1,1.63c0,1.1,1.2,1.75,3.15,1.75S1014,405.62,1014,404.57Zm-1.5-9.74a2.15,2.15,0,1,0-4.27,0,2.16,2.16,0,1,0,4.27,0Z"/>
    <path class="cls-15" d="M1018.91,390.73h2.38l.2,2.17h.1a4.15,4.15,0,0,1,3.47-2.47,3.08,3.08,0,0,1,1.4.25l-.5,2.5a3.85,3.85,0,0,0-1.27-.2c-1,0-2.15.67-2.9,2.52V403h-2.88Z"/>
    <path class="cls-15" d="M1026.94,399.7c0-2.62,2.17-4,7.22-4.55-.05-1.3-.57-2.4-2.25-2.4a7,7,0,0,0-3.45,1.2l-1-1.92a9.6,9.6,0,0,1,5-1.6c3,0,4.57,1.87,4.57,5.3V403h-2.37l-.2-1.35h-.1a6,6,0,0,1-3.8,1.65A3.43,3.43,0,0,1,1026.94,399.7Zm7.22,0V397c-3.35.43-4.45,1.3-4.45,2.53s.75,1.57,1.78,1.57A3.88,3.88,0,0,0,1034.16,399.7Z"/>
    <path class="cls-15" d="M1039.71,407.8l.53-2.25a3.12,3.12,0,0,0,.87.17,2.57,2.57,0,0,0,2.45-2.1l.23-.77L1039,390.73h2.93l2.12,6c.35,1.08.7,2.3,1.08,3.45h.1c.3-1.12.62-2.35.92-3.45l1.85-6h2.77l-4.44,12.82c-1,2.77-2.3,4.5-5,4.5A4.79,4.79,0,0,1,1039.71,407.8Z"/>
    <path class="cls-15" d="M1051.64,401.6l1.35-1.85a5.47,5.47,0,0,0,3.4,1.38c1.32,0,1.94-.63,1.94-1.48,0-1-1.32-1.47-2.62-2-1.62-.6-3.37-1.53-3.37-3.58s1.7-3.67,4.45-3.67a6.65,6.65,0,0,1,4.09,1.47l-1.32,1.75a4.64,4.64,0,0,0-2.7-1c-1.22,0-1.82.58-1.82,1.35,0,1,1.17,1.35,2.5,1.83,1.67.62,3.52,1.42,3.52,3.72,0,2.1-1.68,3.8-4.77,3.8A7.73,7.73,0,0,1,1051.64,401.6Z"/>
  </g>
</svg>
