<svg xmlns="http://www.w3.org/2000/svg" xmlns:xlink="http://www.w3.org/1999/xlink" viewBox="0 0 1920 1080">
  <defs>
    <style>
      .cls-1 {
        fill: #fff;
        stroke: #000;
        stroke-miterlimit: 10;
      }
    </style>
  </defs>
  <title>Artboard 1</title>
  <g id="Layer_1" data-name="Layer 1">
    <image width="2090" height="1584" transform="translate(247.5) scale(0.68)" xlink:href="phone_temp.png"/>
  </g>
  <g id="Layer_2" data-name="Layer 2">
    <path d="M753.5,45.5c111.4,0,223.12-2.59,334.49,0,58.43,1.36,85.56,31.77,87.51,89.39,8.14,240.1,0,481.82,0,722.06,0,51,18.71,144.58-28.44,182-27.1,21.51-63.14,15.56-95.53,15.56H842.14c-65.27,0-142.4,10.63-152.64-74-11.35-93.92,0-196.24,0-290.7V224.41C689.5,161.05,668.29,62.77,753.5,45.5Z"/>
    <polygon class="cls-1" points="873.5 94.5 1002.5 94.5 1006.5 97.5 1008.5 104.5 1008.5 112.5 1006.5 117.5 1001.5 120.5 873.64 120.64 868.5 118.5 866.64 113.64 866.5 100.5 869.5 96.5 873.5 94.5"/>
  </g>
</svg>
