<svg xmlns="http://www.w3.org/2000/svg" viewBox="0 0 160 160">
  <defs>
    <style>
      .cls-1 {
        fill: #d9e0e6;
      }

      .cls-2 {
        fill: none;
        stroke: #383838;
        stroke-miterlimit: 10;
        stroke-width: 0.5px;
      }
    </style>
  </defs>
  <title>Artboard 3 copy 3</title>
  <g id="Layer_3" data-name="Layer 3">
    <rect class="cls-1" x="-323" y="-29.5" width="724" height="631"/>
    <rect class="cls-1" x="-75" y="-277.5" width="724" height="631"/>
  </g>
  <g id="Layer_2" data-name="Layer 2">
    <g>
      <path class="cls-2" d="M48.68,5h58a9.51,9.51,0,0,1,9.58,9.58V145.42a9.51,9.51,0,0,1-9.58,9.58H48.68a9.65,9.65,0,0,1-9.59-9.58V14.58A9.65,9.65,0,0,1,48.68,5ZM73,144.3h9.58c3.35,0,3.35,5.35,0,5.35H73C69.63,149.65,69.63,144.3,73,144.3Zm9.58,1.12H73a1.56,1.56,0,1,0,0,3.12h9.58A1.56,1.56,0,1,0,82.55,145.42ZM71.86,11.24H83.67c2,0,1.78,2.9,0,2.9H71.86C69.85,14.14,70.07,11.24,71.86,11.24Zm11.81.86H71.86c-.67,0-.67,1.15,0,1.15H83.67C84.34,13.25,84.34,12.1,83.67,12.1Zm-39,7.39h66.2a1,1,0,0,1,.89,1.11V139.4a1,1,0,0,1-.89,1.11H44.66a1,1,0,0,1-1.11-1.11V20.6A1,1,0,0,1,44.66,19.49Zm65.53,1.56H45.33V138.73h64.86ZM106.63,6.56H48.68a7.94,7.94,0,0,0-7.8,8V145.42a7.9,7.9,0,0,0,7.8,7.8h58a8,8,0,0,0,8-7.8V14.58A8,8,0,0,0,106.63,6.56Z"/>
      <circle class="cls-2" cx="65.68" cy="12.64" r="2.16"/>
      <circle class="cls-2" cx="65.68" cy="12.64" r="1.15"/>
      <circle class="cls-2" cx="88.6" cy="12.64" r="1.53"/>
      <circle class="cls-2" cx="88.6" cy="12.64" r="0.64"/>
      <circle class="cls-2" cx="92.42" cy="12.64" r="1.53"/>
      <circle class="cls-2" cx="92.42" cy="12.64" r="0.64"/>
      <circle class="cls-2" cx="100.32" cy="12.64" r="1.78"/>
      <circle class="cls-2" cx="100.32" cy="12.64" r="0.74"/>
    </g>
  </g>
</svg>
