<?xml version="1.0"?>
<svg xmlns="http://www.w3.org/2000/svg" viewBox="0 0 64 64" width="512" height="512"><g id="outline"><path d="M15,43a9,9,0,1,0-9-9A9.01,9.01,0,0,0,15,43Zm0-16a7,7,0,1,1-7,7A7.008,7.008,0,0,1,15,27Z"/><path d="M15,39a5,5,0,1,0-5-5A5.006,5.006,0,0,0,15,39Zm0-8a3,3,0,1,1-3,3A3,3,0,0,1,15,31Z"/><path d="M49,43a9,9,0,1,0-9-9A9.01,9.01,0,0,0,49,43Zm0-16a7,7,0,1,1-7,7A7.008,7.008,0,0,1,49,27Z"/><path d="M49,39a5,5,0,1,0-5-5A5.006,5.006,0,0,0,49,39Zm0-8a3,3,0,1,1-3,3A3,3,0,0,1,49,31Z"/><path d="M28,42a3,3,0,1,0-3-3A3,3,0,0,0,28,42Zm0-4a1,1,0,1,1-1,1A1,1,0,0,1,28,38Z"/><path d="M33,39a3,3,0,1,0,3-3A3,3,0,0,0,33,39Zm4,0a1,1,0,1,1-1-1A1,1,0,0,1,37,39Z"/><path d="M38,28H26v6H38Zm-2,4H28V30h8Z"/><rect x="26" y="24" width="12" height="2"/><rect x="40" y="24" width="2" height="2"/><rect x="22" y="24" width="2" height="2"/><path d="M55,11H53v9H2V47H8v4H20V47H44v4H56V47h6V20H55ZM18,49H10V47h8Zm36,0H46V47h8Zm6-4H4V22H60Z"/><rect x="53" y="7" width="2" height="2"/></g></svg>
