<?xml version="1.0" encoding="iso-8859-1"?>
<!-- Generator: Adobe Illustrator 16.0.0, SVG Export Plug-In . SVG Version: 6.00 Build 0)  -->
<!DOCTYPE svg PUBLIC "-//W3C//DTD SVG 1.1//EN" "http://www.w3.org/Graphics/SVG/1.1/DTD/svg11.dtd">
<svg version="1.1" id="Capa_1" xmlns="http://www.w3.org/2000/svg" xmlns:xlink="http://www.w3.org/1999/xlink" x="0px" y="0px"
	 width="970.6px" height="970.6px" viewBox="0 0 970.6 970.6" style="enable-background:new 0 0 970.6 970.6;" xml:space="preserve"
	>
<g>
	<path d="M569.853,548.9l88.7-116c6.3-8.2,8.601-18.7,6.4-28.8s-8.8-18.7-17.9-23.4c0,0-178.6-93.5-179.2-93.8
		c-16.699-8.9-35-15.7-55.3-15.7c-22.899,0-44.7,9.5-64.899,21.1l-104.9,60.3l-9.9-20.3c-17.6-1.7-34.2-9.7-46.4-22.6l-46.6-49.2
		c-7,10.1-8.5,23.5-2.7,35.3l59.1,121.2c4.2,8.699,11.9,15.3,21.2,18.1c3.4,1,6.8,1.5,10.3,1.5c6.1,0,12.1-1.6,17.4-4.6l62.1-35.601
		v101.2l-82.8,235c-3.4,9.801,3.8,20,14.1,20h68.6v171c0,26,21.1,47,47,47c25.899,0,47-21.1,47-47v-171h22.699v171
		c0,26,21.101,47,47,47c26,0,47-21.1,47-47v-171h68.601c10.3,0,17.6-10.199,14.1-20l-59.899-170c0.399,0,0.8,0,1.199,0
		C552.553,562.6,563.053,557.9,569.853,548.9z M518.954,500.301l-0.9-2.701V392l59.8,31.3L518.954,500.301z"/>
	<path d="M199.753,186.7l-27.8-29.4c-2-2.2-4.8-3.2-7.5-3.2c-2.6,0-5.1,0.9-7.1,2.8l-7.6,7.2c-21.4,20.2-22.4,54-2.1,75.4l8,8.4
		l45.4,48c6,6.3,13.1,10.8,20.8,13.6c5.8,2.1,11.9,3.1,18,3.1c13.2,0,26.3-4.8,36.7-14.6l7.6-7.2c4.2-3.9,4.3-10.5,0.4-14.6
		l-27.8-29.4c-2-2.2-4.8-3.2-7.5-3.2c-2.6,0-5.1,0.9-7.1,2.8l-14.9,14.1l-42.6-45l14.9-14.1
		C203.454,197.3,203.653,190.8,199.753,186.7z"/>
	<path d="M535.954,223.1c-8.7-4.7-27.8-18.2-27.8-46c0-36,9-145-95.5-145c-104.5,0-95.5,109-95.5,145c0,27.8-19.101,41.3-27.8,46
		c-2.6,1.4-3.8,4.4-2.9,7.1c5.8,18.6,20.4,24.3,36.1,24.3c24.101,0,50.601-13.4,50.601-13.4c-12.5-7.3-18.9-21.8-22-36.4
		c13.1,21.7,35.8,36,61.5,36c25.699,0,48.399-14.3,61.5-36c-3.101,14.7-9.5,29.1-22,36.4c0,0,26.5,13.4,50.6,13.4
		c15.6,0,30.3-5.6,36.1-24.3C539.654,227.5,538.454,224.5,535.954,223.1z"/>
	<path d="M809.654,158.6h-182.9l-51.3,26.2c-8.2,4.2-18.3,3.4-25.5-2.5c-0.4-0.3-0.8-0.7-1.2-1.1c-8.1-7.5-9.7-19.7-4.1-29.3
		l25-42.4V28.1c0-15.5,12.699-28.1,28.1-28.1h211.7c15.5,0,28.1,12.7,28.1,28.1v102.4C837.753,145.9,825.053,158.6,809.654,158.6z"
		/>
</g>
<g>
</g>
<g>
</g>
<g>
</g>
<g>
</g>
<g>
</g>
<g>
</g>
<g>
</g>
<g>
</g>
<g>
</g>
<g>
</g>
<g>
</g>
<g>
</g>
<g>
</g>
<g>
</g>
<g>
</g>
</svg>
